<?xml version="1.0" encoding="UTF-8" standalone="no"?>
<svg
   xmlns:dc="http://purl.org/dc/elements/1.1/"
   xmlns:cc="http://creativecommons.org/ns#"
   xmlns:rdf="http://www.w3.org/1999/02/22-rdf-syntax-ns#"
   xmlns:svg="http://www.w3.org/2000/svg"
   xmlns="http://www.w3.org/2000/svg"
   xmlns:xlink="http://www.w3.org/1999/xlink"
   xml:space="preserve"
   enable-background="new 0 0 942 458"
   viewBox="0 0 200 200"
   height="200"
   width="200"
   y="0px"
   x="0px"
   id="Layer_1"
   version="1.0"><metadata
     id="metadata78"><rdf:RDF><cc:Work
         rdf:about=""><dc:format>image/svg+xml</dc:format><dc:type
           rdf:resource="http://purl.org/dc/dcmitype/StillImage" /><dc:title></dc:title></cc:Work></rdf:RDF></metadata><defs
     id="defs76"><defs
       id="defs56"><rect
         height="211"
         width="211"
         y="193.5"
         x="193.5"
         id="SVGID_5_" /></defs><clipPath
       id="SVGID_6_"><use
         height="100%"
         width="100%"
         y="0"
         x="0"
         style="overflow:visible"
         id="use60"
         overflow="visible"
         xlink:href="#SVGID_5_" /></clipPath><defs
       id="defs64"><rect
         id="SVGID_7_"
         x="-364.23001"
         y="-202.26199"
         width="1326.286"
         height="1024.855" /></defs><clipPath
       id="SVGID_8_"><use
         xlink:href="#SVGID_7_"
         overflow="visible"
         id="use68"
         style="overflow:visible"
         x="0"
         y="0"
         width="100%"
         height="100%" /></clipPath></defs><g
     transform="matrix(0.94534712,0,0,0.94534712,-4.7267356,-4.7267356)"
     id="g4174"><path
       style="color:#000000;clip-rule:nonzero;display:inline;overflow:visible;visibility:visible;opacity:0.96992481;isolation:auto;mix-blend-mode:normal;color-interpolation:sRGB;color-interpolation-filters:linearRGB;solid-color:#000000;solid-opacity:1;fill:#000000;fill-opacity:1;fill-rule:nonzero;stroke:none;stroke-width:10;stroke-linecap:round;stroke-linejoin:round;stroke-miterlimit:4;stroke-dasharray:none;stroke-dashoffset:0;stroke-opacity:1;color-rendering:auto;image-rendering:auto;shape-rendering:auto;text-rendering:auto;enable-background:accumulate"
       d="M 110.78125,5 A 105.78197,105.78197 0 0 0 5,110.78125 105.78197,105.78197 0 0 0 110.78125,216.5625 105.78197,105.78197 0 0 0 216.5625,110.78125 105.78197,105.78197 0 0 0 110.78125,5 Z m -19.79492,47.63867 32.47851,0 26.90039,60.59375 -11.81054,0 0,17.94727 c -0.089,6.521 -4.85872,11.17533 -11.88672,11.86133 l -6.03906,0 0,31.02148 -43.38672,0 0,-32.2793 c -20.869,-3.162 -34.82422,-19.7344 -34.82422,-42.9414 0,-27.599 21.91936,-46.20313 48.56836,-46.20313 z m 51.02539,0 17.79101,0 26.55274,60.59375 -11.83203,0 -0.002,0 0,17.88672 c -0.072,7.961 -6.89707,12.05888 -11.95507,11.92188 l -5.69727,0 0,31.02148 -17.62695,0 0,-31.02148 c 13.251,0.178 17.32625,-3.98633 17.28125,-13.73633 l 0,-16.07227 12.13867,0 -26.65039,-60.59375 z m -27.63477,29.61719 c -6.48,0 -11.73437,5.26414 -11.73437,11.74414 0,6.492 5.25437,11.75586 11.73437,11.75586 6.502,0 11.74805,-5.26386 11.74805,-11.75586 0,-6.48 -5.24705,-11.74414 -11.74805,-11.74414 z"
       id="path4440" /><path
       style="fill:#ffffff"
       id="path72"
       d="m 362.742,301.451 11.833,0 -26.554,-60.594 -17.791,0 26.65,60.594 -12.138,0 0,16.072 c 0.045,9.75 -4.031,13.914 -17.282,13.736 l 0,31.023 17.627,0 0,-31.022 5.698,0 c 5.058,0.137 11.883,-3.961 11.955,-11.922 l 0,-17.887 z m -51.058,-60.594 -32.478,0 c -26.649,0 -48.569,18.604 -48.569,46.203 0,23.207 13.954,39.779 34.823,42.941 l 0,32.281 43.387,0 0,-31.022 6.04,0 c 7.028,-0.686 11.797,-5.34 11.886,-11.861 l 0,-17.947 11.811,0 -26.9,-60.595 z m -9.089,53.118 c -6.48,0 -11.734,-5.264 -11.734,-11.756 0,-6.48 5.254,-11.744 11.734,-11.744 6.501,0 11.748,5.264 11.748,11.744 0,6.492 -5.246,11.756 -11.748,11.756"
       clip-path="url(#SVGID_8_)"
       transform="translate(-188.21875,-188.21875)" /></g></svg>