<?xml version="1.0" encoding="UTF-8" standalone="no"?>
<svg
   xmlns:dc="http://purl.org/dc/elements/1.1/"
   xmlns:cc="http://creativecommons.org/ns#"
   xmlns:rdf="http://www.w3.org/1999/02/22-rdf-syntax-ns#"
   xmlns:svg="http://www.w3.org/2000/svg"
   xmlns="http://www.w3.org/2000/svg"
   version="1.1"
   id="svg2"
   viewBox="0 0 200 200.00001"
   height="200"
   width="200">
  <defs
     id="defs4" />
  <metadata
     id="metadata7">
    <rdf:RDF>
      <cc:Work
         rdf:about="">
        <dc:format>image/svg+xml</dc:format>
        <dc:type
           rdf:resource="http://purl.org/dc/dcmitype/StillImage" />
        <dc:title></dc:title>
      </cc:Work>
    </rdf:RDF>
  </metadata>
  <g
     transform="translate(-65.634896,-652.36219)"
     id="layer1">
    <g
       transform="matrix(0.33387358,0,0,0.33333333,-74.995524,608.16556)"
       id="g3365">
      <path
         id="path3381"
         d="m 421.20859,432.58989 0,-300 299.5,0 299.50001,0 0,300 0,300 -299.50001,0 -299.5,0 0,-300 z"
         style="fill:#fefefe" />
      <path
         id="path3373"
         d="m 529.70859,731.45479 c -40.78719,-5.25781 -77.01759,-31.30863 -95.53397,-68.69198 -4.67837,-9.44531 -8.32316,-20.34604 -10.69649,-31.9907 -1.65595,-8.1249 -1.76954,-20.84641 -1.76954,-198.18222 0,-182.45065 0.0708,-189.8348 1.90273,-198.5 9.5748,-45.28936 40.99554,-81.14144 83.09727,-94.81666 20.39133,-6.62339 5.16154,-6.18334 214,-6.18334 208.64835,0 194.59288,-0.40376 214.20981,6.15336 38.33178,12.81269 69.5395,45.27041 80.1725,83.38357 5.2341,18.76162 5.1069,13.5157 5.0935,209.96307 -0.013,197.37822 0.1166,192.25572 -5.3582,211 -7.6737,26.27272 -24.46535,49.5685 -47.70116,66.17799 -13.41674,9.59059 -27.3868,15.77325 -45.41645,20.09974 l -9,2.15969 -188,0.16492 c -107.03238,0.0939 -191.01475,-0.22371 -195,-0.73744 z M 710.77025,628.52962 c 40.6923,-10.56106 86.88278,-51.87879 144.14605,-128.93973 56.19562,-75.62416 79.60628,-130.61152 75.37029,-177.03104 -1.45142,-15.9052 -3.3431,-23.46887 -8.65515,-34.60659 -7.6703,-16.08226 -20.42339,-26.05826 -38.42285,-30.05596 -9.03636,-2.00699 -32.30813,-2.23956 -42,-0.41974 -37.53204,7.04731 -64.16949,28.36106 -83.25186,66.61333 -6.13624,12.30062 -13.22425,31.42389 -12.07367,32.57447 0.55673,0.55673 3.12482,0.14176 6.53062,-1.05528 13.15193,-4.62254 32.59542,-5.21727 40.34316,-1.23402 4.99764,2.56938 8.82538,6.6443 10.83841,11.53832 3.56105,8.65751 2.97775,23.52674 -1.45284,37.03489 -3.12553,9.52926 -14.94772,32.81809 -23.77212,46.82932 -18.82672,29.89275 -32.75093,44.8123 -41.82268,44.8123 -3.81202,0 -9.22251,-4.27108 -13.00916,-10.26953 -6.08778,-9.64366 -15.09867,-38.49656 -20.21561,-64.73047 -4.2653,-21.86764 -6.09463,-31.88099 -8.03832,-44 -9.44842,-58.9114 -11.01856,-66.40641 -16.63034,-79.38412 -4.59633,-10.6294 -8.3783,-16.29342 -15.26646,-22.86361 -9.37889,-8.94595 -19.11707,-12.76598 -32.47835,-12.7404 -20.53854,0.0393 -39.29208,12.1853 -92.70078,60.03894 -17.325,15.52302 -33.1875,29.73574 -35.25,31.58383 -2.0625,1.84808 -3.74083,3.92383 -3.72961,4.61276 0.0262,1.6079 18.82833,25.7526 20.05428,25.7526 0.50777,0 5.9862,-3.39407 12.17428,-7.54237 16.23154,-10.88115 20.27668,-12.71043 25.13313,-11.36565 8.34522,2.31083 16.86923,13.16345 24.52004,31.21846 6.63183,15.65034 10.35555,28.11118 29.64117,99.18956 19.26309,70.9953 20.23875,74.09606 28.55716,90.75777 8.33978,16.7045 20.23268,31.9637 29.8968,38.35911 2.10996,1.3963 6.46124,3.61804 9.66952,4.93719 7.74378,3.18402 20.51752,3.33848 31.89489,0.38566 z"
         style="fill:#4ec9f0" />
      <path
         id="path3371"
         d="m 529.20859,731.09766 c -16.87333,-2.56785 -27.55368,-5.97887 -40.82318,-13.03784 -30.15409,-16.04108 -52.40412,-43.06854 -61.61113,-74.84002 -5.66049,-19.53315 -5.5674,-15.99296 -5.54617,-210.93113 0.0212,-194.46334 -0.085,-190.41348 5.50756,-210.08858 11.21589,-39.45856 44.62456,-72.86723 84.08312,-84.08312 19.67157,-5.59154 15.66961,-5.48637 209.58858,-5.50756 194.39234,-0.0212 190.90173,-0.11323 210.43113,5.54617 19.52188,5.65721 37.49928,16.42212 52.39434,31.37383 20.85616,20.93549 32.32246,44.86428 35.95536,75.03425 1.3994,11.621 1.3994,364.43146 0,376.05246 -6.7244,55.84399 -45.65631,98.36448 -100.44761,109.70643 -7.29992,1.51111 -25.03067,1.68115 -194.532,1.86566 -148.32463,0.16146 -188.2399,-0.0618 -195,-1.09055 z M 701.66607,630.48572 c 9.44446,-1.15826 22.1756,-5.17402 31.81234,-10.0345 8.52558,-4.30006 26.59681,-16.77263 37.05418,-25.57442 31.3811,-26.41293 73.32173,-76.22724 107.16788,-127.28691 42.74983,-64.4916 57.84618,-107.95578 52.44829,-151.00481 -5.10012,-40.67419 -27.38444,-60.89347 -67.20094,-60.97355 -45.31842,-0.0911 -79.50051,20.8084 -102.29587,62.54553 -6.31408,11.56076 -15.44336,33.97724 -15.44336,37.92039 0,1.97143 0.0518,1.96519 12.5,-1.50775 11.75581,-3.27976 28.13458,-3.30468 34.80161,-0.0529 9.01218,4.39554 12.70685,12.09997 12.68361,26.44886 -0.008,5.01835 -0.68342,11.96039 -1.50064,15.42675 -5.77052,24.47655 -40.58827,81.44864 -57.24646,93.67206 -8.42846,6.18462 -13.88661,5.54489 -20.14861,-2.36153 -7.71351,-9.7391 -17.50647,-40.24017 -23.95595,-74.61301 -4.50222,-23.9948 -6.19211,-33.53369 -8.14923,-46 -7.47434,-47.60926 -9.67308,-57.86568 -15.22823,-71.03483 -7.64539,-18.12432 -18.88079,-29.56588 -33.34057,-33.95236 -7.09923,-2.1536 -21.77059,-1.97103 -28.53146,0.35505 -17.97773,6.18525 -36.57154,19.63941 -74.92426,54.21392 -11.8471,10.68002 -26.59788,23.87839 -32.7795,29.32971 -6.18162,5.45132 -11.11354,10.28835 -10.95981,10.74894 0.8408,2.51923 19.50427,25.78812 20.70295,25.81164 0.78289,0.0154 6.85789,-3.51617 13.5,-7.84785 16.22278,-10.57977 18.07304,-11.45509 22.85736,-10.81338 10.66583,1.43059 21.32781,17.61297 31.82247,48.29905 2.86902,8.38896 22.28275,77.2312 25.63129,90.89011 4.24678,17.3229 16.2466,59.15187 18.93396,66 7.86167,20.03374 19.96872,39.36434 30.80334,49.18186 8.56791,7.76361 17.64609,11.89102 29.02813,13.1977 0.55,0.0631 5.03087,-0.37954 9.95748,-0.98373 z"
         style="fill:#38c1ed" />
      <path
         id="path3369"
         d="m 529.79357,731.03394 c -18.01449,-2.45254 -35.83316,-8.8062 -49.69733,-17.72072 -30.7135,-19.74845 -50.22701,-49.0239 -56.55482,-84.84725 -1.73311,-9.81154 -1.83283,-20.44161 -1.83283,-195.37608 0,-148.86665 0.25927,-186.64168 1.32742,-193.4053 4.31492,-27.32227 16.23445,-50.99441 35.25366,-70.01362 18.37454,-18.37453 40.48403,-29.87489 66.91892,-34.80818 8.87785,-1.65679 21.68106,-1.7729 195.5,-1.7729 205.03968,0 192.86428,-0.34888 212.9408,6.10173 39.80956,12.79085 71.06421,45.482 81.64571,85.39827 4.9544,18.6892 4.9135,16.95633 4.9135,208.1352 0,194.44241 0.092,190.97205 -5.5657,210.49471 -5.6339,19.44136 -16.29173,37.20841 -31.43431,52.40224 -19.92513,19.99257 -43.09281,31.39217 -71.99039,35.42268 -9.68016,1.35015 -33.82357,1.53216 -191.29399,1.44213 -145.26962,-0.0831 -182.13826,-0.3648 -190.13064,-1.45291 z M 707.20859,630.06148 c 25.60392,-5.2122 52.73267,-22.93719 85.51814,-55.87459 39.74524,-39.92943 87.27167,-104.0089 112.06556,-151.097 18.91922,-35.93105 26.42029,-61.08691 26.41249,-88.57793 -0.012,-42.29149 -13.84418,-66.52106 -43.49619,-76.19141 -9.43492,-3.077 -35.67802,-3.53836 -49.22959,-0.86549 -42.50116,8.38283 -72.82103,38.49259 -91.18777,90.55588 -2.1947,6.22122 -2.80732,9.13107 -2.02428,9.61502 0.61757,0.38168 4.56959,-0.42085 8.78225,-1.7834 10.34424,-3.34576 28.52057,-4.28988 35.83255,-1.86123 9.52221,3.16277 14.35597,10.71556 15.0893,23.57715 0.85255,14.95245 -3.14309,28.6911 -14.69617,50.53141 -12.64654,23.9074 -28.75856,47.19405 -39.9737,57.77385 -10.01152,9.44436 -15.31594,10.43614 -21.6956,4.05647 -11.66945,-11.66944 -22.82236,-52.16541 -34.37927,-124.83032 -8.10929,-50.98772 -9.78561,-58.14479 -17.21503,-73.5 -4.19742,-8.67527 -6.31611,-11.71846 -12.19149,-17.51134 -7.64,-7.53271 -12.69268,-10.49343 -22.0809,-12.93875 -7.5116,-1.95653 -14.46725,-1.96752 -22.0702,-0.0349 -15.75548,4.00498 -39.00268,19.51307 -65.89225,43.95639 -9.8873,8.98782 -45.84069,41.11489 -52.87523,47.24803 -2.03094,1.77072 -3.69262,3.68058 -3.69262,4.24417 0,2.07125 20.3622,27.11139 21.64592,26.61878 0.7102,-0.27253 5.9179,-3.59675 11.57267,-7.38716 11.93228,-7.99823 19.52271,-12.19522 22.05557,-12.19522 6.20035,0 14.55331,7.29018 20.46488,17.86105 8.85032,15.82586 14.25062,31.80784 28.26153,83.63895 4.46025,16.5 8.75209,32.25 9.53741,35 0.78532,2.75 4.62605,16.925 8.53494,31.5 8.18792,30.53006 10.22203,36.46384 17.61678,51.39054 7.12903,14.3903 13.20417,23.63065 20.59969,31.33231 14.79811,15.4107 28.54237,19.85439 48.71061,15.74874 z"
         style="fill:#29bbea" />
      <path
         id="path3367"
         d="m 537.20859,731.9297 c -15.67315,-2.43135 -22.30701,-3.78531 -29.17206,-5.95398 -31.08418,-9.81949 -58.10238,-32.95347 -72.84515,-62.37274 -5.78834,-11.55065 -8.94468,-21.31333 -12.12824,-37.51309 -1.60832,-8.18405 -2.45448,-356.24442 -0.91044,-374.5 1.71305,-20.25382 5.01846,-33.01716 12.56038,-48.5 6.4313,-13.20285 11.80259,-20.8292 22.34948,-31.73261 22.27992,-23.03306 48.34244,-34.95902 82.64603,-37.81805 14.34563,-1.19564 347.58935,-1.19969 362,-0.004 13.21055,1.09574 27.63386,3.99343 36.51331,7.33565 42.02124,15.81675 71.7076,51.67144 79.7016,96.26224 1.6714,9.32278 1.7851,21.80761 1.7851,195.95717 0,205.23432 0.3782,192.12012 -6.135,212.73787 -12.3243,39.0135 -44.46511,70.10195 -83.94563,81.19719 -20.40995,5.73582 -14.26451,5.57699 -210.04772,5.42876 -98.92941,-0.0749 -180.99666,-0.3107 -182.37166,-0.52401 z m 173,-102.25503 c 20.59067,-5.19326 38.44291,-15.49421 62.47835,-36.05072 42.94275,-36.72714 103.23577,-114.5544 133.31394,-172.08392 20.65778,-39.51146 27.77486,-67.76716 25.18743,-99.99731 -2.72541,-33.94892 -17.41004,-55.42074 -43.47972,-63.5759 -8.86896,-2.7744 -43.63887,-2.74132 -54.5,0.0519 -38.78831,9.97525 -67.04281,38.38432 -84.40895,84.87074 -5.047,13.50999 -5.42404,15.70047 -2.70248,15.70047 1.17621,0 2.91996,-0.43034 3.875,-0.95631 3.89899,-2.14732 14.29666,-4.28384 23.27112,-4.78177 15.66271,-0.86902 25.04439,3.09094 28.95905,12.22348 3.82663,8.92716 3.36948,24.18067 -1.14212,38.10856 -3.03399,9.36632 -15.85961,34.36525 -24.83457,48.40604 -22.51855,35.22897 -36.13173,47.20383 -45.38632,39.92417 -7.53827,-5.92961 -14.11801,-21.24959 -21.4418,-49.92417 -3.70806,-14.51806 -5.51086,-22.94264 -8.66674,-40.5 -1.38405,-7.7 -2.97049,-16.475 -3.52543,-19.5 -0.55494,-3.025 -1.91452,-11.35 -3.02129,-18.5 -6.91334,-44.66172 -9.52424,-56.32572 -15.50626,-69.27301 -10.62318,-22.99253 -26.17897,-34.20137 -47.46921,-34.20434 -11.82524,-0.002 -22.15772,4.03547 -39.04358,15.25514 -12.82111,8.51888 -24.28325,18.02166 -54.65312,45.3106 -15.24826,13.70137 -30.32942,27.11989 -33.5137,29.81896 -3.18428,2.69906 -5.78725,5.62406 -5.78437,6.5 0.003,0.87593 3.86345,6.54261 8.57907,12.59261 4.71561,6.05 9.00409,11.7875 9.52996,12.75 0.52586,0.9625 1.6234,1.75 2.43898,1.75 0.81558,0 6.08725,-3.0698 11.71482,-6.82179 19.09389,-12.73018 23.01353,-14.15244 29.60675,-10.74295 11.68155,6.04077 24.41304,33.62407 36.13305,78.28379 1.04197,3.97048 3.71811,13.87048 5.94699,22 13.36578,48.74977 17.39594,63.52422 19.03477,69.78095 1.00843,3.85 2.78431,10.6 3.94641,15 6.12641,23.19625 20.7682,50.99297 33.96369,64.47839 6.3372,6.47645 14.44631,11.96925 21.10028,14.29252 6.4248,2.24325 20.71942,2.15456 30,-0.18613 z"
         style="fill:#18b5e8" />
    </g>
  </g>
</svg>
